<?xml version="1.0" encoding="UTF-8" standalone="no"?>
<svg
   viewBox="0 0 200 200"
   version="1.1"
   id="svg1"
   sodipodi:docname="icon.svg"
   inkscape:version="1.4.3 (0d15f750, 2025-12-25)"
   inkscape:export-filename="icon-192.png"
   inkscape:export-xdpi="92.160004"
   inkscape:export-ydpi="92.160004"
   xmlns:inkscape="http://www.inkscape.org/namespaces/inkscape"
   xmlns:sodipodi="http://sodipodi.sourceforge.net/DTD/sodipodi-0.dtd"
   xmlns="http://www.w3.org/2000/svg"
   xmlns:svg="http://www.w3.org/2000/svg">
  <defs
     id="defs1" />
  <sodipodi:namedview
     id="namedview1"
     pagecolor="#ffffff"
     bordercolor="#666666"
     borderopacity="1.0"
     inkscape:showpageshadow="2"
     inkscape:pageopacity="0.0"
     inkscape:pagecheckerboard="0"
     inkscape:deskcolor="#d1d1d1"
     inkscape:zoom="0.53336904"
     inkscape:cx="-48.746737"
     inkscape:cy="171.55102"
     inkscape:window-width="1440"
     inkscape:window-height="900"
     inkscape:window-x="0"
     inkscape:window-y="0"
     inkscape:window-maximized="0"
     inkscape:current-layer="svg1" />
  <rect
     width="185"
     height="185"
     x="7.5"
     y="7.5"
     rx="40"
     style="fill:#ffffff;stroke:#d2d2d2;stroke-width:15;stroke-dasharray:none;stroke-opacity:1"
     id="rect1" />
  <path
     d="M87.15 57.29c9.59-1.68 18.96-6.83 24.85-15.82 5.66-7.6 8.1-17.6 7.9-27.45.89-7.09-4.3-14.95-10.94-13.93-5.57 1.03-9.16 6.7-14.12 9.32-6.33 4.72-14.45 6.24-21.61 3.15-3.2-1.18-6.33-2.5-9.42-3.82C54 4.6 43.5.64 32.85 2.7 23.26 4.37 13.89 9.52 8 18.5 2.34 26.11-.1 36.12.1 45.96c-.9 7.09 4.32 15.05 10.94 13.94 5.59-.94 9.42-6.27 14.12-9.33 6.62-4.3 14.4-6.12 21.61-3.15 3.15 1.3 6.33 2.51 9.42 3.82 9.8 4.15 20.31 8.1 30.96 6.05"
     style="fill:#7c3aed;"
     transform="translate(39.74 69.87)"
     id="path1" />
</svg>
