<svg xmlns="http://www.w3.org/2000/svg" viewBox="0 0 48 48"><circle cx="24" cy="24" r="13"/><path d="M24 0a2.4 2.4 0 0 1 2.4 2.4v3.27a2.4 2.4 0 1 1-4.8 0V2.4A2.4 2.4 0 0 1 24 0M7.03 7.03a2.4 2.4 0 0 1 3.4 0l2.3 2.31a2.4 2.4 0 1 1-3.39 3.4l-2.31-2.32a2.4 2.4 0 0 1 0-3.4M0 24a2.4 2.4 0 0 1 2.4-2.4h3.27a2.4 2.4 0 1 1 0 4.8H2.4A2.4 2.4 0 0 1 0 24m7.03 16.97a2.4 2.4 0 0 1 0-3.4l2.31-2.3a2.4 2.4 0 1 1 3.4 3.39l-2.32 2.31a2.4 2.4 0 0 1-3.4 0M24 48a2.4 2.4 0 0 1-2.4-2.4v-3.27a2.4 2.4 0 1 1 4.8 0v3.27A2.4 2.4 0 0 1 24 48m16.97-7.03a2.4 2.4 0 0 1-3.4 0l-2.3-2.31a2.4 2.4 0 1 1 3.39-3.4l2.31 2.32a2.4 2.4 0 0 1 0 3.4M48 24a2.4 2.4 0 0 1-2.4 2.4h-3.27a2.4 2.4 0 1 1 0-4.8h3.27A2.4 2.4 0 0 1 48 24M40.97 7.03a2.4 2.4 0 0 1 0 3.4l-2.31 2.3a2.4 2.4 0 1 1-3.4-3.39l2.32-2.31a2.4 2.4 0 0 1 3.4 0"/></svg>