<svg xmlns="http://www.w3.org/2000/svg" viewBox="0 0 200 200"><rect width="195" height="195" x="2.5" y="2.5" rx="40" style="fill:#fff;stroke:#e0e0e0;stroke-width:5;"/><path d="M87.15 57.29c9.59-1.68 18.96-6.83 24.85-15.82 5.66-7.6 8.1-17.6 7.9-27.45.89-7.09-4.3-14.95-10.94-13.93-5.57 1.03-9.16 6.7-14.12 9.32-6.33 4.72-14.45 6.24-21.61 3.15-3.2-1.18-6.33-2.5-9.42-3.82C54 4.6 43.5.64 32.85 2.7 23.26 4.37 13.89 9.52 8 18.5 2.34 26.11-.1 36.12.1 45.96c-.9 7.09 4.32 15.05 10.94 13.94 5.59-.94 9.42-6.27 14.12-9.33 6.62-4.3 14.4-6.12 21.61-3.15 3.15 1.3 6.33 2.51 9.42 3.82 9.8 4.15 20.31 8.1 30.96 6.05" style="fill:#7c3aed;" transform="translate(39.74 69.87)"/></svg>