<?xml version="1.0" encoding="UTF-8" standalone="no"?>
<svg
   viewBox="0 0 1200 630"
   version="1.1"
   id="svg1"
   sodipodi:docname="thumbnail.svg"
   inkscape:version="1.4.3 (0d15f750, 2025-12-25)"
   inkscape:export-filename="../public/og-image.png"
   inkscape:export-xdpi="96"
   inkscape:export-ydpi="96"
   width="1200"
   height="630"
   xmlns:inkscape="http://www.inkscape.org/namespaces/inkscape"
   xmlns:sodipodi="http://sodipodi.sourceforge.net/DTD/sodipodi-0.dtd"
   xmlns="http://www.w3.org/2000/svg"
   xmlns:svg="http://www.w3.org/2000/svg">
  <defs
     id="defs1" />
  <sodipodi:namedview
     id="namedview1"
     pagecolor="#ffffff"
     bordercolor="#666666"
     borderopacity="1.0"
     inkscape:showpageshadow="2"
     inkscape:pageopacity="0.0"
     inkscape:pagecheckerboard="0"
     inkscape:deskcolor="#d1d1d1"
     inkscape:zoom="0.45094928"
     inkscape:cx="694.09137"
     inkscape:cy="297.15094"
     inkscape:window-width="1440"
     inkscape:window-height="757"
     inkscape:window-x="0"
     inkscape:window-y="25"
     inkscape:window-maximized="0"
     inkscape:current-layer="svg1" />
  <rect
     width="1175"
     height="605"
     x="12.5"
     y="12.5"
     rx="40"
     style="fill:#ffffff;stroke:#d2d2d2;stroke-width:25;stroke-dasharray:none;stroke-opacity:1"
     id="rect1" />
  <g
     id="g3"
     transform="translate(23.618673)">
    <path
       d="m 370.44,218.73209 c -5.95673,-34.00301 -24.21695,-67.22597 -56.09256,-88.10999 -26.94712,-20.06851 -62.40385,-28.71996 -97.32874,-28.01082 -25.13882,-3.155655 -53.00782,15.24639 -49.39123,38.78967 3.65204,19.7494 23.75601,32.47837 33.04568,50.06491 16.73558,22.44412 22.125,51.23499 11.16887,76.62201 -4.1839,11.34615 -8.86419,22.44411 -13.54447,33.40024 -14.67909,34.78306 -28.71996,72.01264 -21.41587,109.77406 5.92127,34.00301 24.18149,67.22597 56.02164,88.10999 26.98258,20.06851 62.47477,28.71996 97.3642,28.01082 25.13882,3.19111 53.36239,-15.31731 49.42669,-38.78967 -3.33293,-19.82031 -22.23137,-33.40024 -33.08114,-50.06491 -15.24639,-23.47236 -21.69952,-51.0577 -11.16887,-76.62201 4.60938,-11.16887 8.89964,-22.44411 13.54448,-33.40024 14.71454,-34.7476 28.71995,-72.01263 21.45132,-109.77406"
       style="fill:#7c3aed;stroke-width:3.54567"
       id="path1" />
    <path
       d="m 673.1348,218.73209 c -5.95673,-34.00301 -24.21695,-67.22597 -56.09257,-88.10999 -26.94712,-20.06851 -62.40385,-28.71996 -97.32874,-28.01082 -25.13881,-3.155657 -53.00781,15.24639 -49.39122,38.78967 3.65204,19.7494 23.75601,32.47837 33.04568,50.06491 16.73557,22.44412 22.125,51.23499 11.16887,76.62201 -4.1839,11.34615 -8.86419,22.44411 -13.54447,33.40024 -14.67909,34.78306 -28.71996,72.01264 -21.41587,109.77406 5.92127,34.00301 24.18149,67.22597 56.02164,88.10999 26.98258,20.06851 62.47477,28.71996 97.3642,28.01082 25.13882,3.19111 53.36239,-15.31731 49.42669,-38.78967 -3.33293,-19.82031 -22.23137,-33.40024 -33.08114,-50.06491 -15.24639,-23.47236 -21.69952,-51.0577 -11.16887,-76.62201 4.60938,-11.16887 8.89964,-22.44411 13.54448,-33.40024 14.71454,-34.7476 28.71995,-72.01263 21.45132,-109.77406"
       style="fill:#7c3aed;stroke-width:3.54567"
       id="path2" />
    <path
       d="m 975.82959,218.73209 c -5.95673,-34.00301 -24.21695,-67.22597 -56.09256,-88.10999 -26.94712,-20.06851 -62.40385,-28.71996 -97.32874,-28.01082 -25.13882,-3.155655 -53.00782,15.24639 -49.39123,38.78967 3.65204,19.7494 23.75601,32.47837 33.04568,50.06491 16.73558,22.44412 22.125,51.23499 11.16887,76.62201 -4.1839,11.34615 -8.86419,22.44411 -13.54447,33.40024 -14.67909,34.78306 -28.71996,72.01264 -21.41587,109.77406 5.92127,34.00301 24.18149,67.22597 56.02164,88.10999 26.98258,20.06851 62.47477,28.71996 97.3642,28.01082 25.13882,3.19111 53.36239,-15.31731 49.42669,-38.78967 -3.33293,-19.82031 -22.23137,-33.40024 -33.08114,-50.06491 -15.24639,-23.47236 -21.69952,-51.0577 -11.16887,-76.62201 4.60938,-11.16887 8.89964,-22.44411 13.54448,-33.40024 14.71454,-34.7476 28.71995,-72.01263 21.45132,-109.77406"
       style="fill:#7c3aed;stroke-width:3.54567"
       id="path3" />
  </g>
</svg>
