<?xml version="1.0" encoding="UTF-8" standalone="no"?>
<!-- Created with Inkscape (http://www.inkscape.org/) -->

<svg
   width="48"
   height="48"
   viewBox="0 0 48 48.000002"
   version="1.1"
   id="svg5"
   inkscape:version="1.2.1 (9c6d41e4, 2022-07-14)"
   sodipodi:docname="toggle.svg"
   xmlns:inkscape="http://www.inkscape.org/namespaces/inkscape"
   xmlns:sodipodi="http://sodipodi.sourceforge.net/DTD/sodipodi-0.dtd"
   xmlns="http://www.w3.org/2000/svg"
   xmlns:svg="http://www.w3.org/2000/svg">
  <sodipodi:namedview
     id="namedview7"
     pagecolor="#ffffff"
     bordercolor="#666666"
     borderopacity="1.0"
     inkscape:showpageshadow="2"
     inkscape:pageopacity="0.0"
     inkscape:pagecheckerboard="0"
     inkscape:deskcolor="#d1d1d1"
     inkscape:document-units="mm"
     showgrid="false"
     inkscape:zoom="0.29198752"
     inkscape:cx="-412.68887"
     inkscape:cy="-261.9975"
     inkscape:window-width="1330"
     inkscape:window-height="717"
     inkscape:window-x="0"
     inkscape:window-y="25"
     inkscape:window-maximized="0"
     inkscape:current-layer="svg5" />
  <defs
     id="defs2">
    <inkscape:path-effect
       effect="powerclip"
       id="path-effect575"
       is_visible="true"
       lpeversion="1"
       inverse="true"
       flatten="false"
       hide_clip="false"
       message="Use fill-rule evenodd on &lt;b&gt;fill and stroke&lt;/b&gt; dialog if no flatten result after convert clip to paths." />
    <inkscape:path-effect
       effect="powerclip"
       id="path-effect552"
       is_visible="true"
       lpeversion="1"
       inverse="true"
       flatten="false"
       hide_clip="false"
       message="Use fill-rule evenodd on &lt;b&gt;fill and stroke&lt;/b&gt; dialog if no flatten result after convert clip to paths." />
    <inkscape:path-effect
       effect="copy_rotate"
       starting_point="0,0"
       origin="24,24"
       id="path-effect518"
       is_visible="true"
       lpeversion="1.2"
       lpesatellites=""
       method="normal"
       num_copies="8"
       starting_angle="0"
       rotation_angle="51.428571"
       gap="-0.01"
       copies_to_360="true"
       mirror_copies="false"
       split_items="false"
       link_styles="false" />
    <clipPath
       clipPathUnits="userSpaceOnUse"
       id="clipPath548">
      <circle
         style="display:none;fill:#ffffff;fill-opacity:0.988235;stroke-width:115;stroke-linecap:round;stroke-miterlimit:100;stop-color:#000000"
         id="circle550"
         cx="14.90126"
         cy="17.15859"
         r="23.511227"
         d="M 38.412487,17.15859 A 23.511227,23.511227 0 0 1 14.90126,40.669817 23.511227,23.511227 0 0 1 -8.6099663,17.15859 23.511227,23.511227 0 0 1 14.90126,-6.3526363 23.511227,23.511227 0 0 1 38.412487,17.15859 Z" />
      <path
         id="lpe_path-effect552"
         style="fill:#ffffff;fill-opacity:0.988235;stroke-width:115;stroke-linecap:round;stroke-miterlimit:100;stop-color:#000000"
         class="powerclip"
         d="M -5,-5 H 53 V 53 H -5 Z M 38.412487,17.15859 A 23.511227,23.511227 0 0 0 14.90126,-6.3526363 23.511227,23.511227 0 0 0 -8.6099663,17.15859 23.511227,23.511227 0 0 0 14.90126,40.669817 23.511227,23.511227 0 0 0 38.412487,17.15859 Z" />
    </clipPath>
  </defs>
  <g
     inkscape:groupmode="layer"
     id="layer2"
     inkscape:label="Moon"
     style="display:none">
    <path
       style="fill:#000000;fill-opacity:0.988235;stroke-width:115;stroke-linecap:round;stroke-miterlimit:100;stop-color:#000000"
       id="path348"
       clip-path="url(#clipPath548)"
       d="M 48,24 A 24,24 0 0 1 24,48 24,24 0 0 1 0,24 24,24 0 0 1 24,0 24,24 0 0 1 48,24 Z"
       sodipodi:type="arc"
       sodipodi:ry="24"
       sodipodi:rx="24"
       sodipodi:cy="24"
       sodipodi:cx="24"
       inkscape:path-effect="#path-effect552"
       class="UnoptimicedTransforms" />
  </g>
  <g
     inkscape:groupmode="layer"
     id="layer3"
     inkscape:label="Sun"
     style="display:inline;fill:#000000">
    <circle
       style="fill:#000000;fill-opacity:0.988235;stroke-width:110.723;stroke-linecap:round;stroke-miterlimit:100;stop-color:#000000"
       id="path460"
       cx="24"
       cy="24"
       r="13" />
    <path
       style="fill:#000000;fill-opacity:0.988235;stroke-width:115;stroke-linecap:round;stroke-miterlimit:100;stop-color:#000000"
       id="rect516"
       width="4.7967911"
       height="8.0673313"
       x="21.601604"
       y="5.5511151e-17"
       ry="2.398396"
       inkscape:path-effect="#path-effect518"
       class="UnoptimicedTransforms"
       d="m 24,0 c 1.328711,0 2.398396,1.0696846 2.398396,2.398396 v 3.2705393 c 0,1.3287114 -1.069685,2.398396 -2.398396,2.398396 -1.328711,0 -2.398396,-1.0696846 -2.398396,-2.398396 V 2.398396 C 21.601604,1.0696846 22.671289,0 24,0 Z M 7.0294373,7.0294373 c 0.9395406,-0.9395407 2.452303,-0.9395405 3.3918437,3e-7 l 2.312621,2.3126205 c 0.93954,0.9395409 0.939541,2.4523029 0,3.3918439 -0.939541,0.939541 -2.452303,0.93954 -3.3918439,0 L 7.0294376,10.421281 C 6.0898968,9.4817403 6.0898966,7.9689779 7.0294373,7.0294373 Z M 0,24 c 0,-1.328711 1.0696846,-2.398396 2.398396,-2.398396 h 3.2705393 c 1.3287114,0 2.398396,1.069685 2.398396,2.398396 0,1.328711 -1.0696846,2.398396 -2.398396,2.398396 H 2.398396 C 1.0696846,26.398396 0,25.328711 0,24 Z m 7.0294373,16.970563 c -0.9395407,-0.939541 -0.9395405,-2.452303 3e-7,-3.391844 l 2.3126205,-2.312621 c 0.9395409,-0.93954 2.4523029,-0.939541 3.3918439,0 0.939541,0.939541 0.93954,2.452303 0,3.391844 l -2.312621,2.31262 c -0.9395407,0.939541 -2.4523031,0.939541 -3.3918437,10e-7 z M 24,48 c -1.328711,0 -2.398396,-1.069685 -2.398396,-2.398396 v -3.270539 c 0,-1.328712 1.069685,-2.398396 2.398396,-2.398396 1.328711,0 2.398396,1.069684 2.398396,2.398396 v 3.270539 C 26.398396,46.930315 25.328711,48 24,48 Z m 16.970563,-7.029437 c -0.939541,0.93954 -2.452303,0.93954 -3.391844,-10e-7 l -2.312621,-2.31262 c -0.93954,-0.939541 -0.939541,-2.452303 0,-3.391844 0.939541,-0.939541 2.452303,-0.93954 3.391844,0 l 2.31262,2.312621 c 0.939541,0.939541 0.939541,2.452303 10e-7,3.391844 z M 48,24 c 0,1.328711 -1.069685,2.398396 -2.398396,2.398396 h -3.270539 c -1.328712,0 -2.398396,-1.069685 -2.398396,-2.398396 0,-1.328711 1.069684,-2.398396 2.398396,-2.398396 h 3.270539 C 46.930315,21.601604 48,22.671289 48,24 Z M 40.970563,7.0294373 c 0.93954,0.9395406 0.93954,2.452303 -10e-7,3.3918437 l -2.31262,2.312621 c -0.939541,0.93954 -2.452303,0.939541 -3.391844,0 -0.939541,-0.939541 -0.93954,-2.452303 0,-3.3918439 l 2.312621,-2.3126205 c 0.939541,-0.9395408 2.452303,-0.939541 3.391844,-3e-7 z"
       sodipodi:type="rect" />
  </g>
  <g
     inkscape:groupmode="layer"
     id="g571"
     inkscape:label="Moon copy"
     style="display:inline">
    <g
       id="path569"
       clip-path="none">
      <path
         id="path1196"
         style="color:#000000;fill:#000000;fill-opacity:0.988235;stroke:none;stroke-width:1.98168;stroke-linecap:round;stroke-linejoin:round;stroke-miterlimit:100;-inkscape-stroke:none"
         d="M 31.333761,0.38239664 A 0.99093731,0.99093731 0 0 0 30.888658,1.9867031 c 3.624114,4.0798198 5.627096,9.3455569 5.629587,14.8025819 -7.66e-4,12.329396 -9.974391,22.302732 -22.303536,22.303537 -3.287926,-0.0059 -6.5342199,-0.739091 -9.5058551,-2.146172 a 0.99093731,0.99093731 0 0 0 -1.2172602,1.490128 c 4.6616997,6.21015 11.9684483,9.876443 19.7335503,9.900642 a 0.99093731,0.99093731 0 0 0 0.0039,0 c 13.668857,0 24.770957,-11.102098 24.770957,-24.770957 C 47.996055,13.268334 41.614244,4.0397834 31.980129,0.40174895 a 0.99093731,0.99093731 0 0 0 -0.646368,-0.0193523 z" />
    </g>
  </g>
</svg>
